<svg width="16" height="16" viewBox="0 0 16 16" fill="none" xmlns="http://www.w3.org/2000/svg">
<mask id="mask0_0_155" style="mask-type:alpha" maskUnits="userSpaceOnUse" x="0" y="0" width="16" height="16">
<rect width="16" height="16" fill="#D9D9D9"/>
</mask>
<g mask="url(#mask0_0_155)">
<path d="M3.41026 13.6666C3.07884 13.6666 2.79514 13.5486 2.55914 13.3126C2.32314 13.0766 2.20514 12.7929 2.20514 12.4615V3.53848C2.20514 3.20707 2.32314 2.92337 2.55914 2.68737C2.79514 2.45136 3.07884 2.33335 3.41026 2.33335H8.70512C8.84679 2.33335 8.96553 2.38129 9.06136 2.47717C9.15719 2.57305 9.20511 2.69185 9.20511 2.83357C9.20511 2.9753 9.15719 3.09403 9.06136 3.18975C8.96553 3.28547 8.84679 3.33333 8.70512 3.33333H3.41026C3.35042 3.33333 3.30127 3.35257 3.26281 3.39103C3.22434 3.4295 3.20511 3.47865 3.20511 3.53848V12.4615C3.20511 12.5213 3.22434 12.5705 3.26281 12.609C3.30127 12.6474 3.35042 12.6667 3.41026 12.6667H12.3333C12.3931 12.6667 12.4423 12.6474 12.4807 12.609C12.5192 12.5705 12.5384 12.5213 12.5384 12.4615V7.16665C12.5384 7.025 12.5864 6.90625 12.6823 6.81042C12.7781 6.71458 12.8969 6.66667 13.0387 6.66667C13.1804 6.66667 13.2991 6.71458 13.3948 6.81042C13.4906 6.90625 13.5384 7.025 13.5384 7.16665V12.4615C13.5384 12.7929 13.4204 13.0766 13.1844 13.3126C12.9484 13.5486 12.6647 13.6666 12.3333 13.6666H3.41026ZM11.4615 4.41023H10.6282C10.4865 4.41023 10.3678 4.3623 10.272 4.26643C10.1761 4.17056 10.1282 4.05176 10.1282 3.91003C10.1282 3.7683 10.1761 3.64957 10.272 3.55385C10.3678 3.45813 10.4865 3.41027 10.6282 3.41027H11.4615V2.57692C11.4615 2.43525 11.5095 2.3165 11.6054 2.22067C11.7012 2.12485 11.82 2.07693 11.9618 2.07693C12.1035 2.07693 12.2222 2.12485 12.3179 2.22067C12.4136 2.3165 12.4615 2.43525 12.4615 2.57692V3.41027H13.2949C13.4365 3.41027 13.5553 3.4582 13.6511 3.55407C13.7469 3.64995 13.7948 3.76875 13.7948 3.91047C13.7948 4.0522 13.7469 4.17093 13.6511 4.26665C13.5553 4.36237 13.4365 4.41023 13.2949 4.41023H12.4615V5.24358C12.4615 5.38525 12.4136 5.504 12.3177 5.59983C12.2218 5.69566 12.103 5.74357 11.9613 5.74357C11.8196 5.74357 11.7008 5.69566 11.6051 5.59983C11.5094 5.504 11.4615 5.38525 11.4615 5.24358V4.41023ZM7.35896 10.6795L6.26666 9.2795C6.20427 9.20343 6.12499 9.1654 6.02884 9.1654C5.93268 9.1654 5.85341 9.20557 5.79102 9.28592L4.73976 10.6846C4.65941 10.7872 4.64883 10.8932 4.70802 11.0026C4.76721 11.112 4.85599 11.1666 4.97437 11.1666H10.8205C10.9388 11.1666 11.0276 11.112 11.0868 11.0026C11.146 10.8932 11.1376 10.7872 11.0615 10.6846L9.47176 8.55515C9.40937 8.47481 9.32903 8.43463 9.23074 8.43463C9.13245 8.43463 9.05196 8.47536 8.98926 8.5568L7.35896 10.6795Z" fill="url(#paint0_linear_0_155)"/>
</g>
<defs>
<linearGradient id="paint0_linear_0_155" x1="2.20514" y1="7.87179" x2="13.7948" y2="7.87179" gradientUnits="userSpaceOnUse">
<stop stop-color="#E67050"/>
<stop offset="1" stop-color="#DB2268"/>
</linearGradient>
</defs>
</svg>
