<svg width="343" height="60" viewBox="0 0 343 60" fill="none" xmlns="http://www.w3.org/2000/svg">
<rect width="343" height="60" rx="10" fill="url(#paint0_linear_0_89)"/>
<path d="M162.404 21.09C162.08 20.466 161.63 19.998 161.054 19.686C160.478 19.362 159.812 19.2 159.056 19.2C158.228 19.2 157.49 19.386 156.842 19.758C156.194 20.13 155.684 20.658 155.312 21.342C154.952 22.026 154.772 22.818 154.772 23.718C154.772 24.618 154.952 25.416 155.312 26.112C155.684 26.796 156.194 27.324 156.842 27.696C157.49 28.068 158.228 28.254 159.056 28.254C160.172 28.254 161.078 27.942 161.774 27.318C162.47 26.694 162.896 25.848 163.052 24.78H158.354V23.142H165.248V24.744C165.116 25.716 164.768 26.61 164.204 27.426C163.652 28.242 162.926 28.896 162.026 29.388C161.138 29.868 160.148 30.108 159.056 30.108C157.88 30.108 156.806 29.838 155.834 29.298C154.862 28.746 154.088 27.984 153.512 27.012C152.948 26.04 152.666 24.942 152.666 23.718C152.666 22.494 152.948 21.396 153.512 20.424C154.088 19.452 154.862 18.696 155.834 18.156C156.818 17.604 157.892 17.328 159.056 17.328C160.388 17.328 161.57 17.658 162.602 18.318C163.646 18.966 164.402 19.89 164.87 21.09H162.404ZM176.362 24.798C176.362 25.17 176.338 25.506 176.29 25.806H168.712C168.772 26.598 169.066 27.234 169.594 27.714C170.122 28.194 170.77 28.434 171.538 28.434C172.642 28.434 173.422 27.972 173.878 27.048H176.092C175.792 27.96 175.246 28.71 174.454 29.298C173.674 29.874 172.702 30.162 171.538 30.162C170.59 30.162 169.738 29.952 168.982 29.532C168.238 29.1 167.65 28.5 167.218 27.732C166.798 26.952 166.588 26.052 166.588 25.032C166.588 24.012 166.792 23.118 167.2 22.35C167.62 21.57 168.202 20.97 168.946 20.55C169.702 20.13 170.566 19.92 171.538 19.92C172.474 19.92 173.308 20.124 174.04 20.532C174.772 20.94 175.342 21.516 175.75 22.26C176.158 22.992 176.362 23.838 176.362 24.798ZM174.22 24.15C174.208 23.394 173.938 22.788 173.41 22.332C172.882 21.876 172.228 21.648 171.448 21.648C170.74 21.648 170.134 21.876 169.63 22.332C169.126 22.776 168.826 23.382 168.73 24.15H174.22ZM183.385 19.92C184.165 19.92 184.861 20.082 185.473 20.406C186.097 20.73 186.583 21.21 186.931 21.846C187.279 22.482 187.453 23.25 187.453 24.15V30H185.419V24.456C185.419 23.568 185.197 22.89 184.753 22.422C184.309 21.942 183.703 21.702 182.935 21.702C182.167 21.702 181.555 21.942 181.099 22.422C180.655 22.89 180.433 23.568 180.433 24.456V30H178.381V20.082H180.433V21.216C180.769 20.808 181.195 20.49 181.711 20.262C182.239 20.034 182.797 19.92 183.385 19.92ZM199.161 24.798C199.161 25.17 199.137 25.506 199.089 25.806H191.511C191.571 26.598 191.865 27.234 192.393 27.714C192.921 28.194 193.569 28.434 194.337 28.434C195.441 28.434 196.221 27.972 196.677 27.048H198.891C198.591 27.96 198.045 28.71 197.253 29.298C196.473 29.874 195.501 30.162 194.337 30.162C193.389 30.162 192.537 29.952 191.781 29.532C191.037 29.1 190.449 28.5 190.017 27.732C189.597 26.952 189.387 26.052 189.387 25.032C189.387 24.012 189.591 23.118 189.999 22.35C190.419 21.57 191.001 20.97 191.745 20.55C192.501 20.13 193.365 19.92 194.337 19.92C195.273 19.92 196.107 20.124 196.839 20.532C197.571 20.94 198.141 21.516 198.549 22.26C198.957 22.992 199.161 23.838 199.161 24.798ZM197.019 24.15C197.007 23.394 196.737 22.788 196.209 22.332C195.681 21.876 195.027 21.648 194.247 21.648C193.539 21.648 192.933 21.876 192.429 22.332C191.925 22.776 191.625 23.382 191.529 24.15H197.019ZM203.232 21.522C203.532 21.018 203.928 20.628 204.42 20.352C204.924 20.064 205.518 19.92 206.202 19.92V22.044H205.68C204.876 22.044 204.264 22.248 203.844 22.656C203.436 23.064 203.232 23.772 203.232 24.78V30H201.18V20.082H203.232V21.522ZM207.404 24.996C207.404 24 207.608 23.118 208.016 22.35C208.436 21.582 209 20.988 209.708 20.568C210.428 20.136 211.22 19.92 212.084 19.92C212.864 19.92 213.542 20.076 214.118 20.388C214.706 20.688 215.174 21.066 215.522 21.522V20.082H217.592V30H215.522V28.524C215.174 28.992 214.7 29.382 214.1 29.694C213.5 30.006 212.816 30.162 212.048 30.162C211.196 30.162 210.416 29.946 209.708 29.514C209 29.07 208.436 28.458 208.016 27.678C207.608 26.886 207.404 25.992 207.404 24.996ZM215.522 25.032C215.522 24.348 215.378 23.754 215.09 23.25C214.814 22.746 214.448 22.362 213.992 22.098C213.536 21.834 213.044 21.702 212.516 21.702C211.988 21.702 211.496 21.834 211.04 22.098C210.584 22.35 210.212 22.728 209.924 23.232C209.648 23.724 209.51 24.312 209.51 24.996C209.51 25.68 209.648 26.28 209.924 26.796C210.212 27.312 210.584 27.708 211.04 27.984C211.508 28.248 212 28.38 212.516 28.38C213.044 28.38 213.536 28.248 213.992 27.984C214.448 27.72 214.814 27.336 215.09 26.832C215.378 26.316 215.522 25.716 215.522 25.032ZM222.682 21.756V27.246C222.682 27.618 222.766 27.888 222.934 28.056C223.114 28.212 223.414 28.29 223.834 28.29H225.094V30H223.474C222.55 30 221.842 29.784 221.35 29.352C220.858 28.92 220.612 28.218 220.612 27.246V21.756H219.442V20.082H220.612V17.616H222.682V20.082H225.094V21.756H222.682ZM236.075 24.798C236.075 25.17 236.051 25.506 236.003 25.806H228.425C228.485 26.598 228.779 27.234 229.307 27.714C229.835 28.194 230.483 28.434 231.251 28.434C232.355 28.434 233.135 27.972 233.591 27.048H235.805C235.505 27.96 234.959 28.71 234.167 29.298C233.387 29.874 232.415 30.162 231.251 30.162C230.303 30.162 229.451 29.952 228.695 29.532C227.951 29.1 227.363 28.5 226.931 27.732C226.511 26.952 226.301 26.052 226.301 25.032C226.301 24.012 226.505 23.118 226.913 22.35C227.333 21.57 227.915 20.97 228.659 20.55C229.415 20.13 230.279 19.92 231.251 19.92C232.187 19.92 233.021 20.124 233.753 20.532C234.485 20.94 235.055 21.516 235.463 22.26C235.871 22.992 236.075 23.838 236.075 24.798ZM233.933 24.15C233.921 23.394 233.651 22.788 233.123 22.332C232.595 21.876 231.941 21.648 231.161 21.648C230.453 21.648 229.847 21.876 229.343 22.332C228.839 22.776 228.539 23.382 228.443 24.15H233.933Z" fill="white"/>
<path d="M161.8 39.05L159.74 46H158.45L156.99 40.74L155.44 46L154.16 46.01L152.19 39.05H153.4L154.84 44.71L156.4 39.05H157.68L159.13 44.68L160.58 39.05H161.8ZM162.36 43.22C162.36 42.6667 162.474 42.1767 162.7 41.75C162.934 41.3233 163.247 40.9933 163.64 40.76C164.04 40.52 164.48 40.4 164.96 40.4C165.394 40.4 165.77 40.4867 166.09 40.66C166.417 40.8267 166.677 41.0367 166.87 41.29V40.49H168.02V46H166.87V45.18C166.677 45.44 166.414 45.6567 166.08 45.83C165.747 46.0033 165.367 46.09 164.94 46.09C164.467 46.09 164.034 45.97 163.64 45.73C163.247 45.4833 162.934 45.1433 162.7 44.71C162.474 44.27 162.36 43.7733 162.36 43.22ZM166.87 43.24C166.87 42.86 166.79 42.53 166.63 42.25C166.477 41.97 166.274 41.7567 166.02 41.61C165.767 41.4633 165.494 41.39 165.2 41.39C164.907 41.39 164.634 41.4633 164.38 41.61C164.127 41.75 163.92 41.96 163.76 42.24C163.607 42.5133 163.53 42.84 163.53 43.22C163.53 43.6 163.607 43.9333 163.76 44.22C163.92 44.5067 164.127 44.7267 164.38 44.88C164.64 45.0267 164.914 45.1 165.2 45.1C165.494 45.1 165.767 45.0267 166.02 44.88C166.274 44.7333 166.477 44.52 166.63 44.24C166.79 43.9533 166.87 43.62 166.87 43.24ZM170.848 41.42V44.47C170.848 44.6767 170.894 44.8267 170.988 44.92C171.088 45.0067 171.254 45.05 171.488 45.05H172.188V46H171.288C170.774 46 170.381 45.88 170.108 45.64C169.834 45.4 169.698 45.01 169.698 44.47V41.42H169.048V40.49H169.698V39.12H170.848V40.49H172.188V41.42H170.848ZM172.858 43.24C172.858 42.6733 172.972 42.1767 173.198 41.75C173.432 41.3167 173.752 40.9833 174.158 40.75C174.565 40.5167 175.032 40.4 175.558 40.4C176.225 40.4 176.775 40.56 177.208 40.88C177.648 41.1933 177.945 41.6433 178.098 42.23H176.868C176.768 41.9567 176.608 41.7433 176.388 41.59C176.168 41.4367 175.892 41.36 175.558 41.36C175.092 41.36 174.718 41.5267 174.438 41.86C174.165 42.1867 174.028 42.6467 174.028 43.24C174.028 43.8333 174.165 44.2967 174.438 44.63C174.718 44.9633 175.092 45.13 175.558 45.13C176.218 45.13 176.655 44.84 176.868 44.26H178.098C177.938 44.82 177.638 45.2667 177.198 45.6C176.758 45.9267 176.212 46.09 175.558 46.09C175.032 46.09 174.565 45.9733 174.158 45.74C173.752 45.5 173.432 45.1667 173.198 44.74C172.972 44.3067 172.858 43.8067 172.858 43.24ZM182.084 40.4C182.504 40.4 182.878 40.49 183.204 40.67C183.538 40.85 183.798 41.1167 183.984 41.47C184.178 41.8233 184.274 42.25 184.274 42.75V46H183.144V42.92C183.144 42.4267 183.021 42.05 182.774 41.79C182.528 41.5233 182.191 41.39 181.764 41.39C181.338 41.39 180.998 41.5233 180.744 41.79C180.498 42.05 180.374 42.4267 180.374 42.92V46H179.234V38.6H180.374V41.13C180.568 40.8967 180.811 40.7167 181.104 40.59C181.404 40.4633 181.731 40.4 182.084 40.4ZM187.946 43.22C187.946 42.6667 188.06 42.1767 188.286 41.75C188.52 41.3233 188.833 40.9933 189.226 40.76C189.626 40.52 190.066 40.4 190.546 40.4C190.98 40.4 191.356 40.4867 191.676 40.66C192.003 40.8267 192.263 41.0367 192.456 41.29V40.49H193.606V46H192.456V45.18C192.263 45.44 192 45.6567 191.666 45.83C191.333 46.0033 190.953 46.09 190.526 46.09C190.053 46.09 189.62 45.97 189.226 45.73C188.833 45.4833 188.52 45.1433 188.286 44.71C188.06 44.27 187.946 43.7733 187.946 43.22ZM192.456 43.24C192.456 42.86 192.376 42.53 192.216 42.25C192.063 41.97 191.86 41.7567 191.606 41.61C191.353 41.4633 191.08 41.39 190.786 41.39C190.493 41.39 190.22 41.4633 189.966 41.61C189.713 41.75 189.506 41.96 189.346 42.24C189.193 42.5133 189.116 42.84 189.116 43.22C189.116 43.6 189.193 43.9333 189.346 44.22C189.506 44.5067 189.713 44.7267 189.966 44.88C190.226 45.0267 190.5 45.1 190.786 45.1C191.08 45.1 191.353 45.0267 191.606 44.88C191.86 44.7333 192.063 44.52 192.216 44.24C192.376 43.9533 192.456 43.62 192.456 43.24ZM197.884 40.4C198.317 40.4 198.704 40.49 199.044 40.67C199.39 40.85 199.66 41.1167 199.854 41.47C200.047 41.8233 200.144 42.25 200.144 42.75V46H199.014V42.92C199.014 42.4267 198.89 42.05 198.644 41.79C198.397 41.5233 198.06 41.39 197.634 41.39C197.207 41.39 196.867 41.5233 196.614 41.79C196.367 42.05 196.244 42.4267 196.244 42.92V46H195.104V40.49H196.244V41.12C196.43 40.8933 196.667 40.7167 196.954 40.59C197.247 40.4633 197.557 40.4 197.884 40.4ZM208.385 44.58H205.475L204.975 46H203.785L206.275 39.04H207.595L210.085 46H208.885L208.385 44.58ZM208.065 43.65L206.935 40.42L205.795 43.65H208.065ZM213.438 39.05C214.178 39.05 214.825 39.1933 215.378 39.48C215.938 39.76 216.368 40.1667 216.668 40.7C216.975 41.2267 217.128 41.8433 217.128 42.55C217.128 43.2567 216.975 43.87 216.668 44.39C216.368 44.91 215.938 45.31 215.378 45.59C214.825 45.8633 214.178 46 213.438 46H211.168V39.05H213.438ZM213.438 45.07C214.251 45.07 214.875 44.85 215.308 44.41C215.741 43.97 215.958 43.35 215.958 42.55C215.958 41.7433 215.741 41.1133 215.308 40.66C214.875 40.2067 214.251 39.98 213.438 39.98H212.308V45.07H213.438Z" fill="white"/>
<path d="M112.204 18.2614L117.124 23.1818H108.602C108.775 22.1371 109.192 21.1478 109.818 20.2932C110.443 19.4387 111.26 18.7428 112.204 18.2614ZM118.817 17.5H115.317C115.102 17.5 114.886 17.5114 114.67 17.5227L120.329 23.1818H124.499L118.817 17.5ZM126.681 17.5H122.045L127.727 23.1818H133.397C133.131 21.5933 132.31 20.1506 131.08 19.1103C129.851 18.0699 128.292 17.4994 126.681 17.5Z" fill="white"/>
<path fill-rule="evenodd" clip-rule="evenodd" d="M133.5 35.6819V25.4546H108.5V35.6819C108.502 37.4897 109.22 39.2231 110.499 40.5014C111.777 41.7797 113.51 42.4985 115.318 42.5H126.682C128.49 42.4985 130.223 41.7797 131.501 40.5014C132.78 39.2231 133.498 37.4897 133.5 35.6819ZM114.245 36.7741C114.42 36.9247 114.601 37 114.787 37C114.927 37 115.061 36.9561 115.19 36.8682C115.318 36.7804 115.423 36.6549 115.505 36.4918L115.995 35.0047C116.018 34.9294 116.07 34.8918 116.152 34.8918H118.514C118.596 34.8918 118.642 34.9294 118.654 35.0047L119.161 36.4729C119.22 36.6486 119.313 36.7741 119.441 36.8494C119.581 36.9373 119.721 36.9812 119.861 36.9812C120.06 36.9812 120.24 36.9059 120.404 36.7553C120.567 36.6047 120.649 36.3976 120.649 36.1341V35.9835C120.649 35.9333 120.637 35.8831 120.614 35.8329L118.252 29.6776C118.17 29.4518 118.03 29.2824 117.832 29.1694C117.645 29.0565 117.447 29 117.237 29C117.039 29 116.846 29.0565 116.659 29.1694C116.473 29.2824 116.339 29.4518 116.257 29.6776L114.052 35.8706C114.017 35.9835 114 36.0902 114 36.1906C114 36.429 114.082 36.6235 114.245 36.7741ZM117.814 33.4235H116.782C116.7 33.4235 116.642 33.3984 116.607 33.3482C116.572 33.2855 116.566 33.2165 116.589 33.1412L117.027 31.8047C117.097 31.5914 117.184 31.4847 117.289 31.4847C117.394 31.4847 117.482 31.5851 117.552 31.7859L118.007 33.1224C118.03 33.2102 118.018 33.2855 117.972 33.3482C117.937 33.3984 117.884 33.4235 117.814 33.4235ZM122.016 36.4918C122.238 36.7051 122.529 36.8118 122.891 36.8118H124.693C125.311 36.8118 125.871 36.6549 126.373 36.3412C126.874 36.0149 127.271 35.5631 127.563 34.9859C127.854 34.4086 128 33.7435 128 32.9906C128 32.2627 127.854 31.6165 127.563 31.0518C127.283 30.4745 126.874 30.0227 126.338 29.6965C125.801 29.3576 125.148 29.1882 124.378 29.1882H122.786C122.459 29.1882 122.197 29.2949 121.999 29.5082C121.8 29.709 121.701 29.9914 121.701 30.3553V35.6071C121.701 35.971 121.806 36.2659 122.016 36.4918ZM124.396 35.3059H123.713C123.422 35.3059 123.276 35.149 123.276 34.8353V31.1647C123.276 30.851 123.422 30.6941 123.713 30.6941H124.378C125.031 30.6941 125.533 30.8886 125.883 31.2776C126.233 31.6667 126.414 32.2376 126.425 32.9906C126.437 33.7184 126.268 34.2894 125.918 34.7035C125.568 35.1051 125.061 35.3059 124.396 35.3059Z" fill="white"/>
<defs>
<linearGradient id="paint0_linear_0_89" x1="-2.55555e-06" y1="30" x2="343" y2="30" gradientUnits="userSpaceOnUse">
<stop stop-color="#E67050"/>
<stop offset="1" stop-color="#DB2268"/>
</linearGradient>
</defs>
</svg>
